<svg id="Layer_6" data-name="Layer 6" xmlns="http://www.w3.org/2000/svg" xmlns:xlink="http://www.w3.org/1999/xlink" viewBox="0 0 1002.62 1066.9"><defs><style>.cls-1{fill:none;}.cls-2,.cls-4{fill:#282a1f;}.cls-2,.cls-3{fill-opacity:0.98;}.cls-3{fill:#d54e21;}.cls-5{fill:#21759b;}.cls-6{clip-path:url(#clip-path);}.cls-7{fill:#464342;}.cls-8{clip-path:url(#clip-path-3);}.cls-9{fill:#2ba9e0;}</style><clipPath id="clip-path" transform="translate(-18.64 -19.43)"><rect class="cls-1" x="-29.65" y="-29.42" width="603.98" height="603.98"/></clipPath><clipPath id="clip-path-3" transform="translate(-18.64 -19.43)"><rect class="cls-1" x="711.36" y="117.23" width="194.44" height="231.33"/></clipPath></defs><title>illustration-material-design-cms</title><g id="g10100"><g id="g10131"><path id="path9788" class="cls-2" d="M677.5,111A182.44,182.44,0,0,0,642,317c42.84,91.17,151.48,130.38,242.65,87.54S1015.05,253,972.21,161.85,820.74,31.5,729.56,74.34A182.08,182.08,0,0,0,677.5,111h0Z" transform="translate(-18.64 -19.43)"/><g id="g10086"><path id="path9790" class="cls-2" d="M705.6,80.06c-2.55-14.43-4.6-26.31-4.56-26.4S730.9,39.75,731.13,39.8s8.64,9.12,18.29,20L767,79.65,738.6,93,710.24,106.3Z" transform="translate(-18.64 -19.43)"/><path id="path9792" class="cls-2" d="M909.11,398.56c2.55,14.43,4.6,26.31,4.56,26.4s-29.86,13.92-30.09,13.87-8.64-9.12-18.29-20L847.75,399l28.36-13.33,28.36-13.33Z" transform="translate(-18.64 -19.43)"/><path id="path10003" class="cls-2" d="M639.53,152.23c-9.42-11.22-17.14-20.48-17.15-20.58s18.9-27,19.12-27.05,12,3.58,25.85,8.2l25.1,8.4-17.9,25.72-17.9,25.72Z" transform="translate(-18.64 -19.43)"/><path id="path10005" class="cls-2" d="M975,326.31c9.42,11.22,17.14,20.48,17.15,20.58s-18.9,27-19.12,27.05-12-3.58-25.85-8.2l-25.1-8.4L940,331.63l17.9-25.72Z" transform="translate(-18.64 -19.43)"/><path id="path10013" class="cls-2" d="M618.53,247.79c-13.77-5-25.08-9.17-25.14-9.25s2.88-32.82,3-33,12.22-2.92,26.49-5.83l25.94-5.28-2.64,31.22-2.64,31.22Z" transform="translate(-18.64 -19.43)"/><path id="path10015" class="cls-2" d="M996.11,230.8c13.77,5,25.08,9.17,25.14,9.25s-2.88,32.82-3,33S1006,276,991.74,278.86l-25.94,5.28,2.64-31.22,2.64-31.22Z" transform="translate(-18.64 -19.43)"/><path id="path10023" class="cls-2" d="M648.11,341.29c-14.43,2.55-26.31,4.6-26.4,4.56S607.79,316,607.85,315.77s9.12-8.64,20-18.29l19.82-17.54L661,308.3l13.33,28.36Z" transform="translate(-18.64 -19.43)"/><path id="path10025" class="cls-2" d="M966.61,137.78c14.43-2.55,26.31-4.6,26.4-4.56s13.92,29.86,13.87,30.09-9.12,8.64-20,18.29L967,199.14l-13.33-28.36-13.33-28.36Z" transform="translate(-18.64 -19.43)"/><path id="path10033" class="cls-2" d="M720.28,407.36c-11.22,9.42-20.48,17.14-20.58,17.15s-27-18.9-27.05-19.12,3.58-12,8.2-25.85l8.4-25.1L715,372.33l25.72,17.9Z" transform="translate(-18.64 -19.43)"/><path id="path10035" class="cls-2" d="M894.36,71.86c11.22-9.42,20.48-17.14,20.58-17.15s27,18.9,27.05,19.12-3.58,12-8.2,25.85l-8.4,25.1-25.72-17.9L874,89Z" transform="translate(-18.64 -19.43)"/><path id="path10043" class="cls-2" d="M815.84,428.37c-5,13.77-9.17,25.08-9.25,25.14s-32.82-2.88-33-3-2.92-12.22-5.83-26.49L762.49,398l31.22,2.64,31.22,2.64Z" transform="translate(-18.64 -19.43)"/><path id="path10045" class="cls-2" d="M798.85,50.78c5-13.77,9.17-25.08,9.25-25.14s32.82,2.88,33,3,2.92,12.22,5.83,26.49l5.28,25.94L821,78.46l-31.22-2.64Z" transform="translate(-18.64 -19.43)"/></g></g></g><path id="path10175" class="cls-3" d="M539.68,750.3l-8.76-8.19c2.92-6.72,5.66-13.67,7.93-20.55a178.21,178.21,0,0,0-23.16-15.95c-5.68,4.66-11.08,9.41-16.38,14.61L488.47,715c-3.68-1.58-7.49-2.84-11.24-4.25,0.1-7.3,0-14.81-.59-22a181.32,181.32,0,0,0-27.47-5.82c-3.45,6.42-6.62,13-9.51,19.82l-12-.73-12,.38q-4-10.33-8.93-20.09a181.35,181.35,0,0,0-27.63,5c-0.76,7.2-1.12,14.71-1.23,22-3.79,1.3-7.63,2.45-11.36,3.92l-11,4.9c-5.14-5.35-10.4-10.26-15.95-15.08A177.86,177.86,0,0,0,316,718.32c2.07,6.94,4.61,14,7.33,20.77l-9,7.93-8.19,8.76c-6.72-2.92-13.67-5.66-20.55-7.93A177.83,177.83,0,0,0,269.64,771c4.66,5.68,9.41,11.08,14.61,16.38L279,798.22c-1.58,3.68-2.84,7.49-4.25,11.24-7.3-.1-14.81,0-22,0.59a181.34,181.34,0,0,0-5.82,27.47q9.63,5.17,19.82,9.51L266,859l0.38,12q-10.33,4-20.08,8.93a181.1,181.1,0,0,0,5,27.63c7.21,0.75,14.71,1.12,22,1.23,1.3,3.79,2.45,7.64,3.92,11.36l4.9,11c-5.36,5.15-10.26,10.4-15.08,15.95a178,178,0,0,0,15.27,23.62c6.94-2.07,14-4.61,20.77-7.33l7.93,9,8.76,8.19c-2.92,6.72-5.66,13.67-7.93,20.55A178.19,178.19,0,0,0,335,1017.05c5.68-4.66,11.08-9.41,16.38-14.61l10.84,5.22c3.68,1.58,7.49,2.84,11.24,4.25-0.1,7.3,0,14.81.59,22a181.35,181.35,0,0,0,27.47,5.82c3.45-6.42,6.62-13,9.51-19.82l12,0.73,12-.38q4,10.33,8.93,20.09a181.35,181.35,0,0,0,27.63-5c0.76-7.2,1.12-14.71,1.23-22,3.79-1.3,7.63-2.45,11.36-3.92l11-4.9c5.14,5.35,10.4,10.26,15.95,15.08a177.86,177.86,0,0,0,23.61-15.27c-2.07-6.94-4.61-14-7.33-20.77l9-7.93,8.19-8.76c6.72,2.92,13.67,5.66,20.55,7.93a177.83,177.83,0,0,0,15.95-23.16c-4.66-5.68-9.41-11.08-14.61-16.38l5.21-10.83c1.58-3.68,2.84-7.49,4.25-11.24,7.3,0.1,14.81,0,22-.59a181.35,181.35,0,0,0,5.82-27.47Q594.17,880,584,875.63l0.73-12-0.38-12q10.33-4,20.08-8.93a181.1,181.1,0,0,0-5-27.63c-7.21-.75-14.71-1.12-22-1.23-1.3-3.79-2.45-7.64-3.92-11.36l-4.9-11c5.36-5.15,10.26-10.4,15.08-15.95A178,178,0,0,0,568.38,752c-6.94,2.07-14,4.61-20.77,7.33l-7.93-9h0Zm-3.86,112.64a110.56,110.56,0,1,1-7.8-42.4,111,111,0,0,1,7.8,42.4h0Z" transform="translate(-18.64 -19.43)"/><g id="g10177"><path id="path10179" class="cls-4" d="M465.28,764.22a104.86,104.86,0,1,0,34.12,22.65A105.45,105.45,0,0,0,465.28,764.22Zm52.82,96.84a92.85,92.85,0,1,1-7.18-35.47A93.18,93.18,0,0,1,518.1,861.06Z" transform="translate(-18.64 -19.43)"/><g id="g10181"><path id="path10183" class="cls-4" d="M476.29,810.11a72.23,72.23,0,1,1-102.15.3,72.23,72.23,0,0,1,102.15-.3h0Z" transform="translate(-18.64 -19.43)"/><rect id="rect10185" class="cls-4" x="412.92" y="762.77" width="24.89" height="197.12" rx="1.92" ry="1.92" transform="translate(-504 536.27) rotate(-45.17)"/><rect id="rect10187" class="cls-4" x="326.81" y="848.89" width="197.12" height="24.89" rx="1.92" ry="1.92" transform="translate(-21.14 -18.2) rotate(-0.17)"/><rect id="rect10189" class="cls-4" x="326.81" y="848.89" width="197.12" height="24.89" rx="1.92" ry="1.92" transform="translate(-504 536.27) rotate(-45.17)"/><rect id="rect10191" class="cls-4" x="412.92" y="762.77" width="24.89" height="197.12" rx="1.92" ry="1.92" transform="translate(-21.14 -18.2) rotate(-0.17)"/><rect id="rect10193" class="cls-4" x="326.81" y="848.89" width="197.12" height="24.89" rx="1.92" ry="1.92" transform="translate(-21.14 -18.2) rotate(-0.17)"/><rect id="rect10195" class="cls-4" x="326.81" y="848.89" width="197.12" height="24.89" rx="1.92" ry="1.92" transform="translate(-504 536.27) rotate(-45.17)"/><rect id="rect10197" class="cls-4" x="412.92" y="762.77" width="24.89" height="197.12" rx="1.92" ry="1.92" transform="translate(-21.14 -18.2) rotate(-0.17)"/></g></g><g id="g10199"><path id="path10201" class="cls-4" d="M510.89,653.24A224.71,224.71,0,1,0,584,701.77a226,226,0,0,0-73.12-48.53h0ZM624.07,860.75a199,199,0,1,1-15.38-76A199.67,199.67,0,0,1,624.07,860.75Z" transform="translate(-18.64 -19.43)"/><path id="path10203" class="cls-4" d="M584.63,986.24c-0.15.15-2,2.19-4,4.54C576,996,563.87,1008.34,559,1012.71s-7.77,7.4-8.1,7.47c-0.16,0,3.34,6.78.61-.48l-10.83-25.18,7.41-7.14c2.92-2.82,6.48-6.72,8.17-8.42l2.83-2.84,0.09,0s9,3.06,14.77,5.29,10.71,4.28,10.8,4.37a20.34,20.34,0,0,0,2-1.68Z" transform="translate(-18.64 -19.43)"/><path id="path10205" class="cls-4" d="M266.1,736.42c0.15-.15,2-2.19,4-4.54,4.59-5.23,16.74-17.55,21.63-21.92s7.77-7.4,8.1-7.47c0.16,0-3.34-6.78-.61.48l10.83,25.18-7.41,7.14c-2.92,2.82-6.48,6.72-8.17,8.42l-2.83,2.84-0.09,0s-9-3.06-14.77-5.29-10.71-4.28-10.8-4.37a20.34,20.34,0,0,0-2,1.68Z" transform="translate(-18.64 -19.43)"/><path id="path10207" class="cls-4" d="M620.3,915.81c-0.08.19-1,2.77-2,5.74-2.24,6.59-8.76,22.62-11.6,28.53s-4.34,9.81-4.63,10,5.68,5,.38-0.68l-19.64-19.12,4.11-9.43c1.62-3.72,3.42-8.69,4.33-10.91l1.52-3.71h0.09s9.49-.62,15.67-0.77,11.53-.14,11.65-0.09a20.32,20.32,0,0,0,1.22-2.33Z" transform="translate(-18.64 -19.43)"/><path id="path10209" class="cls-4" d="M230.43,806.85c0.08-.19,1-2.77,2-5.74,2.24-6.59,8.76-22.62,11.6-28.53s4.34-9.81,4.63-10-5.68-5-.38.68l19.64,19.12-4.11,9.43c-1.62,3.72-3.42,8.69-4.33,10.91l-1.52,3.71h-0.09s-9.49.62-15.67,0.77-11.53.14-11.65,0.09a20.33,20.33,0,0,0-1.22,2.33Z" transform="translate(-18.64 -19.43)"/><path id="path10211" class="cls-4" d="M626.47,838.43c0,0.21.15,2.93,0.33,6.06,0.41,6.95.4,24.25,0,30.8-0.4,6.39-.33,10.72-0.52,11-0.09.14,7.14,2.48,0.09-.77L601,875.2l0.26-10.29c0.1-4.06-.1-9.34-0.09-11.73l0-4,0.08,0s8.56-4.15,14.23-6.61,10.63-4.47,10.76-4.47a20.34,20.34,0,0,0,.25-2.61v3Z" transform="translate(-18.64 -19.43)"/><path id="path10213" class="cls-4" d="M224.26,884.23c0-.21-0.15-2.93-0.33-6.06-0.41-6.95-.4-24.25,0-30.8,0.4-6.39.33-10.72,0.52-11,0.09-.14-7.14-2.48-0.09.77l25.39,10.32-0.26,10.29c-0.1,4.06.1,9.34,0.09,11.73l0,4-0.08,0s-8.56,4.15-14.23,6.61-10.63,4.47-10.76,4.47a20.34,20.34,0,0,0-.25,2.61v-3Z" transform="translate(-18.64 -19.43)"/><path id="path10215" class="cls-4" d="M601.57,761.73c0.08,0.19,1.28,2.64,2.67,5.45,3.09,6.24,9.84,22.17,12,28.36,2.13,6,3.88,10,3.82,10.34,0,0.16,7.54-.51-0.21-0.75l-27.41.41L588.68,796c-1.49-3.77-3.74-8.56-4.67-10.77l-1.55-3.7,0.06-.07s6.26-7.16,10.52-11.64,8-8.27,8.16-8.32a20.38,20.38,0,0,0-.79-2.5Z" transform="translate(-18.64 -19.43)"/><path id="path10217" class="cls-4" d="M249.16,960.93c-0.08-.19-1.28-2.64-2.67-5.45-3.09-6.24-9.84-22.17-12-28.36-2.13-6-3.88-10-3.82-10.34,0-.16-7.54.51,0.21,0.75l27.41-.41,3.78,9.57c1.49,3.77,3.74,8.56,4.67,10.77l1.55,3.7-0.06.07s-6.26,7.16-10.52,11.64-8,8.27-8.16,8.32a20.38,20.38,0,0,0,.79,2.5Z" transform="translate(-18.64 -19.43)"/><path id="path10219" class="cls-4" d="M550,701.84c0.15,0.15,2.2,2,4.55,4,5.24,4.58,17.58,16.71,22,21.59s7.41,7.75,7.49,8.09c0,0.16,6.77-3.36-.48-0.61l-25.16,10.88-7.15-7.4c-2.82-2.92-6.73-6.47-8.44-8.16l-2.85-2.82,0-.09s3-9,5.26-14.78,4.26-10.72,4.35-10.81a20.34,20.34,0,0,0-1.69-2Z" transform="translate(-18.64 -19.43)"/><path id="path10221" class="cls-4" d="M300.75,1020.83c-0.15-.15-2.2-2-4.55-4-5.24-4.58-17.58-16.71-22-21.59s-7.41-7.75-7.49-8.09c0-.16-6.77,3.36.48,0.61l25.16-10.88,7.15,7.4c2.82,2.92,6.73,6.47,8.44,8.16l2.85,2.82,0,0.09s-3,9-5.26,14.78-4.26,10.72-4.35,10.81a20.34,20.34,0,0,0,1.69,2Z" transform="translate(-18.64 -19.43)"/><path id="path10223" class="cls-4" d="M479,666.17c0.19,0.08,2.78,1,5.74,1.95,6.6,2.21,22.66,8.66,28.58,11.48s9.83,4.3,10,4.58,5-5.71-.68-0.37l-19,19.72-9.45-4.07c-3.73-1.61-8.7-3.38-10.93-4.28l-3.71-1.51v-0.09s-0.66-9.49-.84-15.67-0.19-11.53-.14-11.65a20.35,20.35,0,0,0-2.33-1.21Z" transform="translate(-18.64 -19.43)"/><path id="path10225" class="cls-4" d="M371.72,1056.5c-0.19-.08-2.78-1-5.74-1.95-6.6-2.21-22.66-8.66-28.58-11.48s-9.83-4.3-10-4.58-5,5.71.68,0.37l19-19.72,9.45,4.07c3.73,1.61,8.7,3.38,10.93,4.28l3.71,1.51v0.09s0.66,9.49.84,15.67,0.19,11.53.14,11.65a20.33,20.33,0,0,0,2.33,1.21Z" transform="translate(-18.64 -19.43)"/><path id="path10227" class="cls-4" d="M400.33,660.48c0.21,0,2.93-.18,6.05-0.39,6.94-.48,24.25-0.66,30.8-0.32,6.39,0.33,10.72.22,11,.4,0.14,0.09,2.4-7.17-.77-0.09l-10.05,25.5-10.29-.15c-4.06-.06-9.34.2-11.73,0.22l-4,0,0-.08s-4.24-8.52-6.76-14.16S400,660.86,400,660.72a20.35,20.35,0,0,0-2.62-.22Z" transform="translate(-18.64 -19.43)"/><path id="path10229" class="cls-4" d="M450.4,1062.18c-0.21,0-2.93.18-6.05,0.39-6.94.48-24.25,0.66-30.8,0.32-6.39-.33-10.72-0.22-11-0.4-0.14-.09-2.4,7.17.77,0.09l10.05-25.5,10.29,0.15c4.06,0.06,9.34-.2,11.73-0.22l4,0,0,0.08s4.24,8.52,6.76,14.16,4.58,10.58,4.58,10.72a20.34,20.34,0,0,0,2.62.22Z" transform="translate(-18.64 -19.43)"/><path id="path10231" class="cls-4" d="M325.64,685.2c0.19-.08,2.64-1.28,5.45-2.67,6.23-3.09,22.16-9.86,28.35-12,6-2.13,10-3.89,10.34-3.83,0.16,0-.51-7.54-0.75.21l0.43,27.41-9.57,3.78c-3.77,1.49-8.55,3.75-10.76,4.68l-3.69,1.55-0.07-.06s-7.17-6.25-11.65-10.51-8.27-8-8.32-8.16a20.39,20.39,0,0,0-2.5.79Z" transform="translate(-18.64 -19.43)"/><path id="path10233" class="cls-4" d="M525.09,1037.46c-0.19.08-2.64,1.28-5.45,2.67-6.23,3.09-22.16,9.86-28.35,12-6,2.13-10,3.89-10.34,3.83-0.16,0,.51,7.54.75-0.21l-0.43-27.41,9.57-3.78c3.77-1.49,8.55-3.75,10.76-4.68l3.69-1.55,0.07,0.06s7.17,6.25,11.65,10.51,8.27,8,8.32,8.16a20.38,20.38,0,0,0,2.5-.79Z" transform="translate(-18.64 -19.43)"/></g><g id="g8353"><path id="path6825" class="cls-1" d="M290.93,249.32a113.21,113.21,0,1,0-36.76,24.4A113.76,113.76,0,0,0,290.93,249.32Zm-3.95-4a107.64,107.64,0,1,1,23.39-34.81A108.15,108.15,0,0,1,287,245.35Z" transform="translate(-18.64 -19.43)"/><path id="path6827" class="cls-1" d="M278.12,236.44a95.08,95.08,0,1,0-30.85,20.48A95.57,95.57,0,0,0,278.12,236.44Z" transform="translate(-18.64 -19.43)"/><path id="path6829" class="cls-1" d="M290.93,249.32a113.21,113.21,0,1,0-36.76,24.4A113.76,113.76,0,0,0,290.93,249.32Zm-3.95-4a107.64,107.64,0,1,1,23.39-34.81A108.15,108.15,0,0,1,287,245.35Z" transform="translate(-18.64 -19.43)"/><path id="path6831" class="cls-1" d="M278.12,236.44a95.08,95.08,0,1,0-30.85,20.48A95.57,95.57,0,0,0,278.12,236.44Z" transform="translate(-18.64 -19.43)"/><path id="path6863" class="cls-1" d="M507.07,337.46A242.39,242.39,0,0,0,81.23,125.95,242.38,242.38,0,1,0,507.07,337.46Zm-5.46-92.8a230.39,230.39,0,1,1-457,58.76,230.39,230.39,0,1,1,457-58.76h0Z" transform="translate(-18.64 -19.43)"/><path id="path6865" class="cls-1" d="M434.19,398.33a203.2,203.2,0,1,0-59.84,52.21,204.74,204.74,0,0,0,59.84-52.21h0Z" transform="translate(-18.64 -19.43)"/><g id="g7102"><g id="g6833"><path id="path6835" class="cls-1" d="M304.73,515.11a242.38,242.38,0,1,0-61.92-480.8,242.38,242.38,0,1,0,61.92,480.8h0Zm83.66-40.53a230.66,230.66,0,1,1,67.73-59.07A231.76,231.76,0,0,1,388.4,474.58Z" transform="translate(-18.64 -19.43)"/><path id="path6837" class="cls-1" d="M375,451.22a203.75,203.75,0,1,0-75.22,25.27A204.79,204.79,0,0,0,375,451.22Z" transform="translate(-18.64 -19.43)"/><path id="path6839" class="cls-4" d="M388.4,474.58a230.66,230.66,0,1,0-85.19,28.62A231.76,231.76,0,0,0,388.4,474.58Zm46.41-75.52a203.2,203.2,0,1,1,35.36-71.12A204.77,204.77,0,0,1,434.8,399.06Z" transform="translate(-18.64 -19.43)"/></g></g><path id="path6980" class="cls-4" d="M449.64,132.93L433.11,116.3,416.57,99.66,431.19,93c8-3.67,15.09-6.58,15.14-6.57s17.56,17.34,17.58,17.48-3.19,6.63-7.12,14.57Z" transform="translate(-18.64 -19.43)"/><path id="path7145" class="cls-1" d="M255.15,269.15a113,113,0,1,0-44-3,113.74,113.74,0,0,0,44,3h0Zm39-18.91a107.64,107.64,0,1,1,31.61-27.57A108.15,108.15,0,0,1,294.19,250.23Z" transform="translate(-18.64 -19.43)"/><path id="path7147" class="cls-1" d="M252.84,251.13a94.83,94.83,0,1,0-37-2.52,95.54,95.54,0,0,0,37,2.52h0Z" transform="translate(-18.64 -19.43)"/><path id="path7149" class="cls-1" d="M255.15,269.15a113,113,0,1,0-44-3,113.74,113.74,0,0,0,44,3h0Zm70.65-46.48a107.42,107.42,0,1,1,18.68-37.58,108.17,108.17,0,0,1-18.68,37.58h0Z" transform="translate(-18.64 -19.43)"/><path id="path7151" class="cls-1" d="M252.84,251.13a94.83,94.83,0,1,0-37-2.52,95.55,95.55,0,0,0,37,2.52h0Z" transform="translate(-18.64 -19.43)"/><path id="path7165" class="cls-1" d="M420.38,467.07a242.21,242.21,0,1,0-85,41.61,243.72,243.72,0,0,0,85-41.61h0Zm81.31-162a230.18,230.18,0,1,1-5.6-89.75,231.78,231.78,0,0,1,5.6,89.75h0Z" transform="translate(-18.64 -19.43)"/><path id="path7167" class="cls-1" d="M396.78,436.1A203.2,203.2,0,1,0,325.46,471a204.74,204.74,0,0,0,71.32-34.95h0Z" transform="translate(-18.64 -19.43)"/><path id="path7548" class="cls-4" d="M98.28,416.11l16.54,16.63,16.54,16.63-14.62,6.68c-8,3.67-15.09,6.58-15.14,6.57S84,445.28,84,445.14s3.19-6.63,7.12-14.57Z" transform="translate(-18.64 -19.43)"/><path id="path7580" class="cls-1" d="M254.95,268.7a113,113,0,1,0-44-3,113.74,113.74,0,0,0,44,3h0Zm70.65-46.48a107.41,107.41,0,1,1,18.68-37.58,108.17,108.17,0,0,1-18.68,37.58h0Z" transform="translate(-18.64 -19.43)"/><path id="path7582" class="cls-1" d="M252.64,250.68a94.83,94.83,0,1,0-37-2.52,95.55,95.55,0,0,0,37,2.52h0Z" transform="translate(-18.64 -19.43)"/><path id="path7584" class="cls-1" d="M254.95,268.7a113,113,0,1,0-44-3,113.73,113.73,0,0,0,44,3h0Zm70.65-46.48a107.41,107.41,0,1,1,18.68-37.58,108.17,108.17,0,0,1-18.68,37.58h0Z" transform="translate(-18.64 -19.43)"/><path id="path7587" class="cls-1" d="M252.64,250.68a94.83,94.83,0,1,0-37-2.52,95.55,95.55,0,0,0,37,2.52h0Z" transform="translate(-18.64 -19.43)"/><path id="path7589" class="cls-1" d="M420.18,466.63a242.21,242.21,0,1,0-85,41.61,243.72,243.72,0,0,0,85-41.61h0Zm52.19-76.93a230.66,230.66,0,1,1,29.12-85A231.76,231.76,0,0,1,472.37,389.7Z" transform="translate(-18.64 -19.43)"/><path id="path7591" class="cls-1" d="M396.58,435.66a203.2,203.2,0,1,0-71.32,34.95,204.74,204.74,0,0,0,71.32-34.95h0Z" transform="translate(-18.64 -19.43)"/><path id="path7605" class="cls-4" d="M480.21,183.3L468.54,163,456.87,142.6l15.85-2.66c8.72-1.47,16.27-2.45,16.33-2.43s12.47,21.3,12.46,21.44-4.8,5.57-10.65,12.23Z" transform="translate(-18.64 -19.43)"/><path id="path7607" class="cls-1" d="M257.08,264.54a113,113,0,1,0-41.76-14.3,113.74,113.74,0,0,0,41.76,14.3h0Zm80.27-26.61a107.41,107.41,0,1,1,27.77-31.46,108.17,108.17,0,0,1-27.77,31.46h0Z" transform="translate(-18.64 -19.43)"/><path id="path7609" class="cls-1" d="M259.51,246.53a94.83,94.83,0,1,0-35.07-12,95.54,95.54,0,0,0,35.07,12h0Z" transform="translate(-18.64 -19.43)"/><path id="path7611" class="cls-1" d="M257.08,264.54a113,113,0,1,0-41.76-14.3,113.74,113.74,0,0,0,41.76,14.3h0Zm80.27-26.61a107.42,107.42,0,1,1,27.77-31.46,108.17,108.17,0,0,1-27.77,31.46h0Z" transform="translate(-18.64 -19.43)"/><path id="path7613" class="cls-1" d="M259.51,246.53a94.83,94.83,0,1,0-35.07-12,95.55,95.55,0,0,0,35.07,12h0Z" transform="translate(-18.64 -19.43)"/><path id="path7615" class="cls-1" d="M365.46,498.48a242.21,242.21,0,1,0-92.83,18.2,243.72,243.72,0,0,0,92.83-18.2h0ZM485.91,363.09a230.18,230.18,0,1,1,17.82-88.14,231.78,231.78,0,0,1-17.82,88.14h0Z" transform="translate(-18.64 -19.43)"/><path id="path7617" class="cls-1" d="M350.68,462.46a203.2,203.2,0,1,0-77.93,15.3,204.74,204.74,0,0,0,77.93-15.3h0Z" transform="translate(-18.64 -19.43)"/><path id="path7619" class="cls-4" d="M67.52,365.89l11.67,20.35,11.67,20.35L75,409.25c-8.72,1.47-16.27,2.45-16.33,2.43s-12.47-21.3-12.46-21.44S51,384.66,56.88,378Z" transform="translate(-18.64 -19.43)"/><path id="path7623" class="cls-1" d="M257,264.09a113,113,0,1,0-41.76-14.3A113.74,113.74,0,0,0,257,264.09h0Zm80.27-26.61A107.42,107.42,0,1,1,365.05,206a108.17,108.17,0,0,1-27.77,31.46h0Z" transform="translate(-18.64 -19.43)"/><path id="path7625" class="cls-1" d="M259.44,246.09a94.83,94.83,0,1,0-35.07-12,95.54,95.54,0,0,0,35.07,12h0Z" transform="translate(-18.64 -19.43)"/><path id="path7627" class="cls-1" d="M257,264.09a113,113,0,1,0-41.76-14.3A113.73,113.73,0,0,0,257,264.09h0Zm80.27-26.61A107.42,107.42,0,1,1,365.05,206a108.17,108.17,0,0,1-27.77,31.46h0Z" transform="translate(-18.64 -19.43)"/><path id="path7629" class="cls-1" d="M296.4,243.78a95.08,95.08,0,1,0-37,2.31A95.57,95.57,0,0,0,296.4,243.78Z" transform="translate(-18.64 -19.43)"/><path id="path7631" class="cls-1" d="M365.39,498a242.21,242.21,0,1,0-92.83,18.2A243.72,243.72,0,0,0,365.39,498h0ZM485.84,362.65a230.18,230.18,0,1,1,17.82-88.14,231.78,231.78,0,0,1-17.82,88.14h0Z" transform="translate(-18.64 -19.43)"/><path id="path7633" class="cls-1" d="M350.61,462a203.2,203.2,0,1,0-77.93,15.3A204.74,204.74,0,0,0,350.61,462h0Z" transform="translate(-18.64 -19.43)"/><path id="path7647" class="cls-4" d="M496.7,239.9l-6-22.67-6-22.67,16,1.53c8.8,0.84,16.36,1.84,16.4,1.88s6.53,23.8,6.49,23.93S517.49,226,510.11,231Z" transform="translate(-18.64 -19.43)"/><path id="path7649" class="cls-1" d="M260.15,260.62A113,113,0,1,0,223.51,236a113.74,113.74,0,0,0,36.64,24.63h0Zm43.27,3.14a107.64,107.64,0,1,1,41.15-8.07A108.15,108.15,0,0,1,303.42,263.76Z" transform="translate(-18.64 -19.43)"/><path id="path7651" class="cls-1" d="M303.45,251.19a95.08,95.08,0,1,0-36.3-7.34A95.57,95.57,0,0,0,303.45,251.19Z" transform="translate(-18.64 -19.43)"/><path id="path7653" class="cls-1" d="M260.15,260.62A113,113,0,1,0,223.51,236a113.74,113.74,0,0,0,36.64,24.63h0Zm84.42-4.93a107.41,107.41,0,1,1,35-23.2,108.17,108.17,0,0,1-35,23.2h0Z" transform="translate(-18.64 -19.43)"/><path id="path7655" class="cls-1" d="M267.16,243.86a94.83,94.83,0,1,0-30.76-20.67,95.55,95.55,0,0,0,30.76,20.67h0Z" transform="translate(-18.64 -19.43)"/><path id="path7657" class="cls-1" d="M393.91,484.52a242.6,242.6,0,1,0-89.63,30.12A243.77,243.77,0,0,0,393.91,484.52ZM455.67,415a230.17,230.17,0,1,1,40-80.53,231.78,231.78,0,0,1-40,80.53h0Z" transform="translate(-18.64 -19.43)"/><path id="path7659" class="cls-1" d="M299.33,476a203.2,203.2,0,1,0-79.24-5.4,204.74,204.74,0,0,0,79.24,5.4h0Z" transform="translate(-18.64 -19.43)"/><path id="path7661" class="cls-4" d="M50.81,309.46l6,22.67,6,22.67-16-1.53c-8.8-.84-16.35-1.84-16.4-1.88s-6.53-23.8-6.49-23.93S30,323.32,37.4,318.4Z" transform="translate(-18.64 -19.43)"/><path id="path7665" class="cls-1" d="M260.21,260.2a113,113,0,1,0-36.64-24.63,113.73,113.73,0,0,0,36.64,24.63h0Zm84.42-4.93a107.41,107.41,0,1,1,35-23.2,108.17,108.17,0,0,1-35,23.2h0Z" transform="translate(-18.64 -19.43)"/><path id="path7667" class="cls-1" d="M267.22,243.44a94.83,94.83,0,1,0-30.76-20.67,95.54,95.54,0,0,0,30.76,20.67h0Z" transform="translate(-18.64 -19.43)"/><path id="path7669" class="cls-1" d="M303.46,268.94a113.21,113.21,0,1,0-43.25-8.74A113.76,113.76,0,0,0,303.46,268.94Zm0-5.6a107.64,107.64,0,1,1,41.16-8.07A108.15,108.15,0,0,1,303.48,263.34Z" transform="translate(-18.64 -19.43)"/><path id="path7671" class="cls-1" d="M267.22,243.44a94.83,94.83,0,1,0-30.76-20.67,95.55,95.55,0,0,0,30.76,20.67h0Z" transform="translate(-18.64 -19.43)"/><path id="path7673" class="cls-1" d="M394,484.1a242.6,242.6,0,1,0-89.63,30.12A243.77,243.77,0,0,0,394,484.1Zm61.76-69.48a230.17,230.17,0,1,1,40-80.53,231.78,231.78,0,0,1-40,80.53h0Z" transform="translate(-18.64 -19.43)"/><path id="path7675" class="cls-1" d="M299.39,475.61a203.2,203.2,0,1,0-79.24-5.4,204.74,204.74,0,0,0,79.24,5.4h0Z" transform="translate(-18.64 -19.43)"/><path id="path7689" class="cls-4" d="M498,298.87l0.07-23.46L498.13,252l15.06,5.62c8.28,3.09,15.32,6,15.35,6.06s0.15,24.68.07,24.8-6.94,2.43-15.34,5.27Z" transform="translate(-18.64 -19.43)"/><path id="path7691" class="cls-1" d="M264.14,257.66a113,113,0,1,0-29-33.27,113.74,113.74,0,0,0,29,33.27h0Zm41,14.23A107.64,107.64,0,1,1,347,274.75,108.15,108.15,0,0,1,305.12,271.89Z" transform="translate(-18.64 -19.43)"/><path id="path7693" class="cls-1" d="M275.25,243.28a94.83,94.83,0,1,0-24.37-27.93,95.54,95.54,0,0,0,24.37,27.93h0Z" transform="translate(-18.64 -19.43)"/><path id="path7695" class="cls-1" d="M264.14,257.66a113,113,0,1,0-29-33.27,113.73,113.73,0,0,0,29,33.27h0ZM347,274.75a107.42,107.42,0,1,1,39.78-13.36A108.17,108.17,0,0,1,347,274.75h0Z" transform="translate(-18.64 -19.43)"/><path id="path7697" class="cls-1" d="M275.25,243.28a94.83,94.83,0,1,0-24.37-27.93,95.54,95.54,0,0,0,24.37,27.93h0Z" transform="translate(-18.64 -19.43)"/><path id="path7699" class="cls-1" d="M335.4,508.55A242.39,242.39,0,0,0,305.65,34,242.38,242.38,0,1,0,241,514.45,243.72,243.72,0,0,0,335.4,508.55ZM413,457.42A230.18,230.18,0,1,1,472.54,390,231.78,231.78,0,0,1,413,457.42h0Z" transform="translate(-18.64 -19.43)"/><path id="path7701" class="cls-1" d="M325.43,470.92a203.75,203.75,0,1,0-79.19,4.94A204.79,204.79,0,0,0,325.43,470.92Z" transform="translate(-18.64 -19.43)"/><path id="path7703" class="cls-4" d="M49.3,250.65l-0.07,23.46-0.07,23.46L34.1,291.95c-8.28-3.09-15.32-6-15.35-6.06s-0.15-24.68-.07-24.8,6.94-2.43,15.34-5.27Z" transform="translate(-18.64 -19.43)"/><path id="path7707" class="cls-1" d="M264.3,257.27a113,113,0,1,0-29-33.27,113.73,113.73,0,0,0,29,33.27h0Zm41,14.23a107.64,107.64,0,1,1,41.84,2.86A108.15,108.15,0,0,1,305.28,271.51Z" transform="translate(-18.64 -19.43)"/><path id="path7709" class="cls-1" d="M275.41,242.9A94.83,94.83,0,1,0,251,215a95.55,95.55,0,0,0,24.37,27.93h0Z" transform="translate(-18.64 -19.43)"/><path id="path7711" class="cls-1" d="M264.3,257.27a113,113,0,1,0-29-33.27,113.73,113.73,0,0,0,29,33.27h0Zm41,14.23a107.64,107.64,0,1,1,41.84,2.86A108.15,108.15,0,0,1,305.28,271.51Z" transform="translate(-18.64 -19.43)"/><path id="path7713" class="cls-1" d="M275.41,242.9A94.83,94.83,0,1,0,251,215a95.55,95.55,0,0,0,24.37,27.93h0Z" transform="translate(-18.64 -19.43)"/><path id="path7715" class="cls-1" d="M241.19,514.06A242.38,242.38,0,1,0,305.82,33.62a242.38,242.38,0,1,0-64.63,480.44h0Zm172-57a230.17,230.17,0,1,1,59.5-67.42A231.79,231.79,0,0,1,413.2,457h0Z" transform="translate(-18.64 -19.43)"/><path id="path7717" class="cls-1" d="M246.4,475.48a203.2,203.2,0,1,0-75.14-25.72,204.74,204.74,0,0,0,75.14,25.72h0Z" transform="translate(-18.64 -19.43)"/><path id="path7731" class="cls-4" d="M484,356.16l6.14-22.64,6.14-22.64,13.09,9.32c7.2,5.13,13.24,9.77,13.26,9.83s-6.24,23.88-6.35,24-7.33.55-16.18,1.12Z" transform="translate(-18.64 -19.43)"/><path id="path7733" class="cls-1" d="M268.76,255.83a113,113,0,1,0-19.42-39.65,113.74,113.74,0,0,0,19.42,39.65h0Zm75.58,37.94a107.42,107.42,0,1,1,41.88-2.61,108.17,108.17,0,0,1-41.88,2.61h0Z" transform="translate(-18.64 -19.43)"/><path id="path7735" class="cls-1" d="M311,269.32a95.08,95.08,0,1,0-27.76-24.5A95.57,95.57,0,0,0,311,269.32Z" transform="translate(-18.64 -19.43)"/><path id="path7737" class="cls-1" d="M268.76,255.83a113,113,0,1,0-19.42-39.65,113.73,113.73,0,0,0,19.42,39.65h0Zm75.58,37.94a107.41,107.41,0,1,1,41.88-2.61,108.17,108.17,0,0,1-41.88,2.61h0Z" transform="translate(-18.64 -19.43)"/><path id="path7739" class="cls-1" d="M283.21,244.82a94.83,94.83,0,1,0-16.31-33.28,95.55,95.55,0,0,0,16.31,33.28h0Z" transform="translate(-18.64 -19.43)"/><path id="path7741" class="cls-1" d="M180,497.89A242.38,242.38,0,1,0,366.74,50.55,242.38,242.38,0,1,0,180,497.89h0Zm180.91-10.56a230.18,230.18,0,1,1,74.93-49.72,231.78,231.78,0,0,1-74.93,49.72h0Z" transform="translate(-18.64 -19.43)"/><path id="path7743" class="cls-1" d="M195,462a203.2,203.2,0,1,0-65.92-44.29A204.74,204.74,0,0,0,195,462h0Z" transform="translate(-18.64 -19.43)"/><path id="path7745" class="cls-4" d="M63,193.46L56.91,216.1l-6.14,22.64-13.09-9.32c-7.2-5.13-13.24-9.77-13.26-9.83s6.24-23.88,6.35-24,7.33-.55,16.18-1.12Z" transform="translate(-18.64 -19.43)"/><path id="path7749" class="cls-1" d="M269,255.5a113,113,0,1,0-19.42-39.65A113.73,113.73,0,0,0,269,255.5h0Zm75.58,37.94a107.41,107.41,0,1,1,41.88-2.61,108.17,108.17,0,0,1-41.88,2.61h0Z" transform="translate(-18.64 -19.43)"/><path id="path7751" class="cls-1" d="M311.23,269a95.08,95.08,0,1,0-27.76-24.5A95.57,95.57,0,0,0,311.23,269Z" transform="translate(-18.64 -19.43)"/><path id="path7753" class="cls-1" d="M269,255.5a113,113,0,1,0-19.42-39.65A113.73,113.73,0,0,0,269,255.5h0Zm75.58,37.94a107.42,107.42,0,1,1,41.88-2.61,108.17,108.17,0,0,1-41.88,2.61h0Z" transform="translate(-18.64 -19.43)"/><path id="path7755" class="cls-1" d="M283.47,244.49a94.83,94.83,0,1,0-16.31-33.28,95.55,95.55,0,0,0,16.31,33.28h0Z" transform="translate(-18.64 -19.43)"/><path id="path7757" class="cls-1" d="M180.23,497.56A242.38,242.38,0,1,0,367,50.22,242.38,242.38,0,1,0,180.23,497.56h0ZM361.13,487a230.17,230.17,0,1,1,74.93-49.72A231.78,231.78,0,0,1,361.13,487h0Z" transform="translate(-18.64 -19.43)"/><path id="path7759" class="cls-1" d="M195.25,461.64a203.2,203.2,0,1,0-65.92-44.29,204.74,204.74,0,0,0,65.92,44.29h0Z" transform="translate(-18.64 -19.43)"/><path id="path7773" class="cls-4" d="M455.61,407.88L467.4,387.6l11.79-20.28,10.23,12.39c5.63,6.82,10.26,12.87,10.26,12.93s-12.21,21.45-12.34,21.51-7.23-1.37-15.92-3.11Z" transform="translate(-18.64 -19.43)"/><path id="path7775" class="cls-1" d="M273.69,255.27a113,113,0,1,0-8.5-43.32,113.74,113.74,0,0,0,8.5,43.32h0Zm63.18,56.21A107.42,107.42,0,1,1,378,319.8a108.17,108.17,0,0,1-41.13-8.32h0Z" transform="translate(-18.64 -19.43)"/><path id="path7777" class="cls-1" d="M290.5,248.37A94.83,94.83,0,1,0,283.36,212a95.55,95.55,0,0,0,7.14,36.37h0Z" transform="translate(-18.64 -19.43)"/><path id="path7779" class="cls-1" d="M273.69,255.27a113,113,0,1,0-8.5-43.32,113.74,113.74,0,0,0,8.5,43.32h0Zm63.18,56.21A107.42,107.42,0,1,1,378,319.8a108.17,108.17,0,0,1-41.13-8.32h0Z" transform="translate(-18.64 -19.43)"/><path id="path7781" class="cls-1" d="M290.5,248.37A94.83,94.83,0,1,0,283.36,212a95.55,95.55,0,0,0,7.14,36.37h0Z" transform="translate(-18.64 -19.43)"/><path id="path7783" class="cls-1" d="M210,508.18A242.39,242.39,0,0,0,421.47,82.34,242.38,242.38,0,1,0,210,508.18Zm92.8-5.46A230.39,230.39,0,1,1,244,45.7a230.39,230.39,0,1,1,58.76,457h0Z" transform="translate(-18.64 -19.43)"/><path id="path7785" class="cls-1" d="M220.14,470.6a203.75,203.75,0,1,0-71.06-35.32A204.79,204.79,0,0,0,220.14,470.6Z" transform="translate(-18.64 -19.43)"/><path id="path7787" class="cls-4" d="M91.14,141.78L79.35,162.06,67.56,182.34,57.33,169.94C51.7,163.13,47.07,157.08,47.07,157s12.21-21.45,12.34-21.51,7.23,1.37,15.92,3.11Z" transform="translate(-18.64 -19.43)"/><path id="path7791" class="cls-1" d="M274.11,255a113,113,0,1,0-8.5-43.32,113.74,113.74,0,0,0,8.5,43.32h0Zm63.18,56.21a107.42,107.42,0,1,1,41.13,8.32,108.17,108.17,0,0,1-41.13-8.32h0Z" transform="translate(-18.64 -19.43)"/><path id="path7793" class="cls-1" d="M290.92,248.06a94.83,94.83,0,1,0-7.14-36.37,95.55,95.55,0,0,0,7.14,36.37h0Z" transform="translate(-18.64 -19.43)"/><path id="path7795" class="cls-1" d="M274.11,255a113,113,0,1,0-8.5-43.32,113.73,113.73,0,0,0,8.5,43.32h0Zm28.37,32.82a107.64,107.64,0,1,1,34.81,23.39A108.15,108.15,0,0,1,302.48,287.77Z" transform="translate(-18.64 -19.43)"/><path id="path7797" class="cls-1" d="M290.92,248.06a94.83,94.83,0,1,0-7.14-36.37,95.55,95.55,0,0,0,7.14,36.37h0Z" transform="translate(-18.64 -19.43)"/><path id="path7799" class="cls-1" d="M210.37,507.86A242.39,242.39,0,0,0,421.88,82,242.38,242.38,0,1,0,210.37,507.86Zm92.8-5.46a230.39,230.39,0,1,1-58.76-457,230.39,230.39,0,1,1,58.76,457h0Z" transform="translate(-18.64 -19.43)"/><path id="path7801" class="cls-1" d="M149.5,435a203.2,203.2,0,1,0-52.21-59.84A204.74,204.74,0,0,0,149.5,435h0Z" transform="translate(-18.64 -19.43)"/><path id="path7815" class="cls-4" d="M414.9,450.43l16.63-16.54,16.63-16.54L454.85,432c3.67,8,6.58,15.09,6.57,15.14s-17.34,17.56-17.48,17.58-6.63-3.19-14.57-7.12Z" transform="translate(-18.64 -19.43)"/><path id="path7817" class="cls-1" d="M278.68,255.94a113,113,0,1,0,3-44,113.74,113.74,0,0,0-3,44h0Zm46.48,70.65a107.42,107.42,0,1,1,37.58,18.68,108.16,108.16,0,0,1-37.58-18.68h0Z" transform="translate(-18.64 -19.43)"/><path id="path7819" class="cls-1" d="M296.71,253.63a94.83,94.83,0,1,0,2.52-37,95.55,95.55,0,0,0-2.52,37h0Z" transform="translate(-18.64 -19.43)"/><path id="path7821" class="cls-1" d="M278.68,255.94a113,113,0,1,0,3-44,113.74,113.74,0,0,0-3,44h0Zm46.48,70.65a107.41,107.41,0,1,1,37.58,18.68,108.17,108.17,0,0,1-37.58-18.68h0Z" transform="translate(-18.64 -19.43)"/><path id="path7823" class="cls-1" d="M296.71,253.63a94.83,94.83,0,1,0,2.52-37,95.55,95.55,0,0,0-2.52,37h0Z" transform="translate(-18.64 -19.43)"/><path id="path7825" class="cls-1" d="M80.76,421.17a242.21,242.21,0,1,0-41.61-85,243.72,243.72,0,0,0,41.61,85h0Zm162,81.31a230.17,230.17,0,1,1,89.75-5.6,231.78,231.78,0,0,1-89.75,5.6h0Z" transform="translate(-18.64 -19.43)"/><path id="path7827" class="cls-1" d="M111.73,397.57a203.2,203.2,0,1,0-34.95-71.32,204.74,204.74,0,0,0,34.95,71.32h0Z" transform="translate(-18.64 -19.43)"/><path id="path7829" class="cls-4" d="M131.72,99.07L115.09,115.6,98.45,132.14l-6.68-14.62c-3.67-8-6.58-15.09-6.57-15.14s17.34-17.56,17.48-17.58,6.63,3.19,14.57,7.12Z" transform="translate(-18.64 -19.43)"/><path id="path7833" class="cls-1" d="M279.13,255.74a113,113,0,1,0,3-44,113.74,113.74,0,0,0-3,44h0Zm18.91,39a107.64,107.64,0,1,1,27.57,31.61A108.15,108.15,0,0,1,298,294.78Z" transform="translate(-18.64 -19.43)"/><path id="path7835" class="cls-1" d="M297.15,253.43a94.83,94.83,0,1,0,2.52-37,95.55,95.55,0,0,0-2.52,37h0Z" transform="translate(-18.64 -19.43)"/><path id="path7837" class="cls-1" d="M279.13,255.74a113,113,0,1,0,3-44,113.73,113.73,0,0,0-3,44h0Zm46.48,70.65a107.41,107.41,0,1,1,37.58,18.68,108.17,108.17,0,0,1-37.58-18.68h0Z" transform="translate(-18.64 -19.43)"/><path id="path7839" class="cls-1" d="M297.15,253.43a94.83,94.83,0,1,0,2.52-37,95.55,95.55,0,0,0-2.52,37h0Z" transform="translate(-18.64 -19.43)"/><path id="path7841" class="cls-1" d="M81.21,421A242.21,242.21,0,1,0,39.6,336a243.72,243.72,0,0,0,41.61,85h0Zm162,81.31a230.17,230.17,0,1,1,89.75-5.6,231.78,231.78,0,0,1-89.75,5.6h0Z" transform="translate(-18.64 -19.43)"/><path id="path7843" class="cls-1" d="M112.17,397.38a203.2,203.2,0,1,0-34.95-71.32,204.74,204.74,0,0,0,34.95,71.32h0Z" transform="translate(-18.64 -19.43)"/><path id="path7857" class="cls-4" d="M364.53,481l20.35-11.67,20.35-11.67,2.66,15.85c1.47,8.72,2.45,16.27,2.43,16.33S389,502.31,388.88,502.3s-5.57-4.8-12.23-10.65Z" transform="translate(-18.64 -19.43)"/><path id="path7859" class="cls-1" d="M283.3,257.87a113,113,0,1,0,14.3-41.76,113.74,113.74,0,0,0-14.3,41.76h0Zm26.61,80.27a107.42,107.42,0,1,1,31.46,27.77,108.17,108.17,0,0,1-31.46-27.77h0Z" transform="translate(-18.64 -19.43)"/><path id="path7861" class="cls-1" d="M301.3,260.31a94.83,94.83,0,1,0,12-35.07,95.55,95.55,0,0,0-12,35.07h0Z" transform="translate(-18.64 -19.43)"/><path id="path7863" class="cls-1" d="M283.3,257.87a113,113,0,1,0,14.3-41.76,113.74,113.74,0,0,0-14.3,41.76h0Zm26.61,80.27a107.42,107.42,0,1,1,31.46,27.77,108.17,108.17,0,0,1-31.46-27.77h0Z" transform="translate(-18.64 -19.43)"/><path id="path7865" class="cls-1" d="M303.61,297.26a95.08,95.08,0,1,0-2.31-37A95.57,95.57,0,0,0,303.61,297.26Z" transform="translate(-18.64 -19.43)"/><path id="path7867" class="cls-1" d="M49.35,366.25a242.21,242.21,0,1,0-18.2-92.83,243.72,243.72,0,0,0,18.2,92.83h0ZM184.74,486.7a230.18,230.18,0,1,1,88.14,17.82,231.78,231.78,0,0,1-88.14-17.82h0Z" transform="translate(-18.64 -19.43)"/><path id="path7869" class="cls-1" d="M85.37,351.47a203.2,203.2,0,1,0-15.3-77.93,204.74,204.74,0,0,0,15.3,77.93h0Z" transform="translate(-18.64 -19.43)"/><path id="path7871" class="cls-4" d="M181.94,68.31L161.59,80,141.25,91.65,138.58,75.8c-1.47-8.72-2.45-16.27-2.43-16.33S157.45,47,157.6,47s5.57,4.8,12.23,10.65Z" transform="translate(-18.64 -19.43)"/><path id="path7875" class="cls-1" d="M283.74,257.8A113,113,0,1,0,298,216a113.73,113.73,0,0,0-14.3,41.76h0Zm26.61,80.27a107.42,107.42,0,1,1,31.46,27.77,108.17,108.17,0,0,1-31.46-27.77h0Z" transform="translate(-18.64 -19.43)"/><path id="path7877" class="cls-1" d="M304.05,297.19a95.08,95.08,0,1,0-2.31-37A95.57,95.57,0,0,0,304.05,297.19Z" transform="translate(-18.64 -19.43)"/><path id="path7879" class="cls-1" d="M283.74,257.8A113,113,0,1,0,298,216a113.73,113.73,0,0,0-14.3,41.76h0Zm26.61,80.27a107.42,107.42,0,1,1,31.46,27.77,108.17,108.17,0,0,1-31.46-27.77h0Z" transform="translate(-18.64 -19.43)"/><path id="path7881" class="cls-1" d="M301.75,260.23a94.83,94.83,0,1,0,12-35.07,95.55,95.55,0,0,0-12,35.07h0Z" transform="translate(-18.64 -19.43)"/><path id="path7883" class="cls-1" d="M49.8,366.18a242.21,242.21,0,1,0-18.2-92.83,243.72,243.72,0,0,0,18.2,92.83h0ZM185.19,486.63a230.18,230.18,0,1,1,88.14,17.82,231.78,231.78,0,0,1-88.14-17.82h0Z" transform="translate(-18.64 -19.43)"/><path id="path7885" class="cls-1" d="M85.82,351.4a203.2,203.2,0,1,0-15.3-77.93,204.74,204.74,0,0,0,15.3,77.93h0Z" transform="translate(-18.64 -19.43)"/><path id="path7899" class="cls-4" d="M307.94,497.49l22.67-6,22.67-6-1.53,16c-0.84,8.8-1.84,16.36-1.88,16.4s-23.8,6.53-23.93,6.49-4.14-6.08-9.06-13.46Z" transform="translate(-18.64 -19.43)"/><path id="path7901" class="cls-1" d="M287.21,260.94a113,113,0,1,0,24.63-36.64,113.74,113.74,0,0,0-24.63,36.64h0Zm4.93,84.42a107.41,107.41,0,1,1,23.2,35,108.17,108.17,0,0,1-23.2-35h0Z" transform="translate(-18.64 -19.43)"/><path id="path7903" class="cls-1" d="M304,267.95a94.83,94.83,0,1,0,20.67-30.76A95.55,95.55,0,0,0,304,267.95h0Z" transform="translate(-18.64 -19.43)"/><path id="path7905" class="cls-1" d="M287.21,260.94a113,113,0,1,0,24.63-36.64,113.74,113.74,0,0,0-24.63,36.64h0Zm4.93,84.42a107.42,107.42,0,1,1,23.2,35,108.17,108.17,0,0,1-23.2-35h0Z" transform="translate(-18.64 -19.43)"/><path id="path7907" class="cls-1" d="M304,267.95a94.83,94.83,0,1,0,20.67-30.76A95.54,95.54,0,0,0,304,267.95h0Z" transform="translate(-18.64 -19.43)"/><path id="path7909" class="cls-1" d="M33.19,305.07A242.38,242.38,0,1,0,514,243.15a242.38,242.38,0,1,0-480.8,61.92h0Zm99.6,151.39a230.18,230.18,0,1,1,80.53,40,231.78,231.78,0,0,1-80.53-40h0Z" transform="translate(-18.64 -19.43)"/><path id="path7911" class="cls-1" d="M71.81,300.12a203.2,203.2,0,1,0,5.4-79.24,204.74,204.74,0,0,0-5.4,79.24h0Z" transform="translate(-18.64 -19.43)"/><path id="path7913" class="cls-4" d="M238.38,51.6l-22.67,6-22.67,6,1.53-16c0.84-8.8,1.84-16.35,1.88-16.4s23.8-6.53,23.93-6.49,4.14,6.08,9.06,13.46Z" transform="translate(-18.64 -19.43)"/><path id="path7917" class="cls-1" d="M287.63,261a113,113,0,1,0,24.63-36.64A113.73,113.73,0,0,0,287.63,261h0Zm4.93,84.42a107.41,107.41,0,1,1,23.2,35,108.17,108.17,0,0,1-23.2-35h0Z" transform="translate(-18.64 -19.43)"/><path id="path7919" class="cls-1" d="M304.39,268a94.83,94.83,0,1,0,20.67-30.76A95.55,95.55,0,0,0,304.39,268h0Z" transform="translate(-18.64 -19.43)"/><path id="path7921" class="cls-1" d="M287.63,261a113,113,0,1,0,24.63-36.64A113.73,113.73,0,0,0,287.63,261h0Zm4.93,84.42a107.42,107.42,0,1,1,23.2,35,108.17,108.17,0,0,1-23.2-35h0Z" transform="translate(-18.64 -19.43)"/><path id="path7923" class="cls-1" d="M304.39,268a94.83,94.83,0,1,0,20.67-30.76A95.55,95.55,0,0,0,304.39,268h0Z" transform="translate(-18.64 -19.43)"/><path id="path7925" class="cls-1" d="M33.61,305.13a242.38,242.38,0,1,0,480.8-61.92,242.38,242.38,0,1,0-480.8,61.92h0Zm99.6,151.39a230.17,230.17,0,1,1,80.53,40,231.78,231.78,0,0,1-80.53-40h0Z" transform="translate(-18.64 -19.43)"/><path id="path7927" class="cls-1" d="M72.23,300.18a203.2,203.2,0,1,0,5.4-79.24,204.74,204.74,0,0,0-5.4,79.24h0Z" transform="translate(-18.64 -19.43)"/><path id="path7941" class="cls-4" d="M249,498.78l23.46,0.07,23.46,0.07L290.26,514c-3.09,8.28-6,15.32-6.06,15.35s-24.68.15-24.8,0.07-2.43-6.94-5.27-15.34Z" transform="translate(-18.64 -19.43)"/><path id="path7943" class="cls-1" d="M290.17,264.93a113,113,0,1,0,33.27-29,113.74,113.74,0,0,0-33.27,29h0Zm-17.09,82.82a107.42,107.42,0,1,1,13.36,39.78,108.17,108.17,0,0,1-13.36-39.78h0Z" transform="translate(-18.64 -19.43)"/><path id="path7945" class="cls-1" d="M288.07,309.2A95.08,95.08,0,1,0,304.55,276,95.57,95.57,0,0,0,288.07,309.2Z" transform="translate(-18.64 -19.43)"/><path id="path7947" class="cls-1" d="M290.17,264.93a113,113,0,1,0,33.27-29,113.74,113.74,0,0,0-33.27,29h0Zm-17.09,82.82a107.42,107.42,0,1,1,13.36,39.78,108.17,108.17,0,0,1-13.36-39.78h0Z" transform="translate(-18.64 -19.43)"/><path id="path7949" class="cls-1" d="M304.55,276a94.83,94.83,0,1,0,27.93-24.37A95.54,95.54,0,0,0,304.55,276h0Z" transform="translate(-18.64 -19.43)"/><path id="path7951" class="cls-1" d="M33.38,241.81a242.38,242.38,0,1,0,480.44,64.63A242.38,242.38,0,1,0,33.38,241.81h0Zm57,172a230.17,230.17,0,1,1,67.42,59.5,231.78,231.78,0,0,1-67.42-59.5h0Z" transform="translate(-18.64 -19.43)"/><path id="path7953" class="cls-1" d="M72,247a203.2,203.2,0,1,0,25.72-75.14A204.74,204.74,0,0,0,72,247h0Z" transform="translate(-18.64 -19.43)"/><path id="path7955" class="cls-4" d="M297.18,50.09L273.72,50,250.27,50l5.62-15.06c3.09-8.28,6-15.32,6.06-15.35s24.68-.15,24.8-0.07,2.43,6.94,5.27,15.34Z" transform="translate(-18.64 -19.43)"/><path id="path7959" class="cls-1" d="M290.56,265.09a113,113,0,1,0,33.27-29,113.73,113.73,0,0,0-33.27,29h0Zm-17.09,82.82a107.42,107.42,0,1,1,13.36,39.78,108.17,108.17,0,0,1-13.36-39.78h0Z" transform="translate(-18.64 -19.43)"/><path id="path7961" class="cls-1" d="M304.94,276.2a94.83,94.83,0,1,0,27.93-24.37,95.54,95.54,0,0,0-27.93,24.37h0Z" transform="translate(-18.64 -19.43)"/><path id="path7963" class="cls-1" d="M290.56,265.09a113,113,0,1,0,33.27-29,113.73,113.73,0,0,0-33.27,29h0Zm-17.09,82.82a107.41,107.41,0,1,1,13.36,39.78,108.17,108.17,0,0,1-13.36-39.78h0Z" transform="translate(-18.64 -19.43)"/><path id="path7965" class="cls-1" d="M304.94,276.2a94.83,94.83,0,1,0,27.93-24.37,95.55,95.55,0,0,0-27.93,24.37h0Z" transform="translate(-18.64 -19.43)"/><path id="path7967" class="cls-1" d="M33.77,242a242.38,242.38,0,1,0,480.44,64.63A242.38,242.38,0,1,0,33.77,242h0Zm57,172a230.17,230.17,0,1,1,67.42,59.5A231.78,231.78,0,0,1,90.8,414h0Z" transform="translate(-18.64 -19.43)"/><path id="path7969" class="cls-1" d="M72.35,247.19A203.2,203.2,0,1,0,98.07,172a204.74,204.74,0,0,0-25.72,75.14h0Z" transform="translate(-18.64 -19.43)"/><path id="path7983" class="cls-4" d="M191.67,484.77l22.64,6.14L236.95,497l-9.32,13.09c-5.13,7.2-9.77,13.24-9.83,13.26s-23.88-6.24-24-6.35-0.55-7.33-1.12-16.18Z" transform="translate(-18.64 -19.43)"/><path id="path7985" class="cls-1" d="M292,269.55a113,113,0,1,0,39.65-19.42A113.74,113.74,0,0,0,292,269.55h0Zm-37.94,75.58A107.41,107.41,0,1,1,256.67,387a108.17,108.17,0,0,1-2.61-41.88h0Z" transform="translate(-18.64 -19.43)"/><path id="path7987" class="cls-1" d="M303,284a94.83,94.83,0,1,0,33.28-16.31A95.54,95.54,0,0,0,303,284h0Z" transform="translate(-18.64 -19.43)"/><path id="path7989" class="cls-1" d="M292,269.55a113,113,0,1,0,39.65-19.42A113.73,113.73,0,0,0,292,269.55h0Zm-37.94,75.58A107.41,107.41,0,1,1,256.67,387a108.17,108.17,0,0,1-2.61-41.88h0Z" transform="translate(-18.64 -19.43)"/><path id="path7991" class="cls-1" d="M303,284a94.83,94.83,0,1,0,33.28-16.31A95.55,95.55,0,0,0,303,284h0Z" transform="translate(-18.64 -19.43)"/><path id="path7993" class="cls-1" d="M49.94,180.76A242.38,242.38,0,1,0,497.29,367.53,242.38,242.38,0,1,0,49.94,180.76h0ZM60.5,361.67a230.18,230.18,0,1,1,49.72,74.93A231.78,231.78,0,0,1,60.5,361.67h0Z" transform="translate(-18.64 -19.43)"/><path id="path7995" class="cls-1" d="M85.86,195.78a203.2,203.2,0,1,0,44.29-65.92,204.74,204.74,0,0,0-44.29,65.92h0Z" transform="translate(-18.64 -19.43)"/><path id="path7997" class="cls-4" d="M354.37,63.84L331.73,57.7l-22.64-6.14,9.32-13.09c5.13-7.2,9.77-13.24,9.83-13.26s23.88,6.24,24,6.35,0.55,7.33,1.12,16.18Z" transform="translate(-18.64 -19.43)"/><path id="path8001" class="cls-1" d="M292.33,269.81A113,113,0,1,0,332,250.39a113.73,113.73,0,0,0-39.65,19.42h0ZM268,305.71a107.64,107.64,0,1,1-13.59,39.68A108.15,108.15,0,0,1,268,305.71Z" transform="translate(-18.64 -19.43)"/><path id="path8003" class="cls-1" d="M278.84,312a95.08,95.08,0,1,0,24.5-27.76A95.57,95.57,0,0,0,278.84,312Z" transform="translate(-18.64 -19.43)"/><path id="path8005" class="cls-1" d="M292.33,269.81A113,113,0,1,0,332,250.39a113.73,113.73,0,0,0-39.65,19.42h0Zm-37.94,75.58A107.42,107.42,0,1,1,257,387.27a108.17,108.17,0,0,1-2.61-41.88h0Z" transform="translate(-18.64 -19.43)"/><path id="path8007" class="cls-1" d="M303.34,284.26A94.83,94.83,0,1,0,336.62,268a95.55,95.55,0,0,0-33.28,16.31h0Z" transform="translate(-18.64 -19.43)"/><path id="path8009" class="cls-1" d="M50.27,181A242.38,242.38,0,1,0,497.62,367.79,242.38,242.38,0,1,0,50.27,181h0ZM60.83,361.93a230.17,230.17,0,1,1,49.72,74.93,231.78,231.78,0,0,1-49.72-74.93h0Z" transform="translate(-18.64 -19.43)"/><path id="path8011" class="cls-1" d="M86.19,196a203.2,203.2,0,1,0,44.29-65.92A204.74,204.74,0,0,0,86.19,196h0Z" transform="translate(-18.64 -19.43)"/><path id="path8025" class="cls-4" d="M140,456.4l20.28,11.79L180.51,480,168.12,490.2c-6.82,5.63-12.87,10.26-12.93,10.26s-21.45-12.21-21.51-12.34,1.37-7.23,3.11-15.92Z" transform="translate(-18.64 -19.43)"/><path id="path8027" class="cls-1" d="M255.8,298.89a113.21,113.21,0,1,0,36.76-24.4A113.76,113.76,0,0,0,255.8,298.89Zm3.95,4a107.64,107.64,0,1,1-23.39,34.81A108.15,108.15,0,0,1,259.75,302.86Z" transform="translate(-18.64 -19.43)"/><path id="path8029" class="cls-1" d="M268.61,311.77a95.08,95.08,0,1,0,30.85-20.48A95.57,95.57,0,0,0,268.61,311.77Z" transform="translate(-18.64 -19.43)"/><path id="path8031" class="cls-1" d="M292.56,274.48a113,113,0,1,0,43.32-8.5,113.74,113.74,0,0,0-43.32,8.5h0Zm-56.21,63.18A107.42,107.42,0,1,1,228,378.8a108.17,108.17,0,0,1,8.32-41.13h0Z" transform="translate(-18.64 -19.43)"/><path id="path8033" class="cls-1" d="M299.46,291.29a94.83,94.83,0,1,0,36.37-7.14,95.55,95.55,0,0,0-36.37,7.14h0Z" transform="translate(-18.64 -19.43)"/><path id="path8035" class="cls-1" d="M81.74,126.07A242.21,242.21,0,1,0,153,63.89a243.72,243.72,0,0,0-71.29,62.18h0ZM45.12,303.55a230.39,230.39,0,1,1,457-58.76,230.39,230.39,0,1,1-457,58.76h0Z" transform="translate(-18.64 -19.43)"/><path id="path8037" class="cls-1" d="M112.54,149.88a203.2,203.2,0,1,0,59.84-52.21,204.74,204.74,0,0,0-59.84,52.21h0Z" transform="translate(-18.64 -19.43)"/><path id="path8039" class="cls-4" d="M406.05,91.93L385.77,80.14,365.5,68.35l12.39-10.23c6.82-5.63,12.87-10.26,12.93-10.26s21.45,12.21,21.51,12.34-1.37,7.23-3.11,15.92Z" transform="translate(-18.64 -19.43)"/></g><g id="g10147"><path id="path10149" class="cls-5" d="M713.15,667.08a156.49,156.49,0,1,0-221.31.65A156.47,156.47,0,0,0,713.15,667.08Zm-36.34-36.13a105.25,105.25,0,1,1-.42-148.84A105.24,105.24,0,0,1,676.81,630.95Z" transform="translate(-18.64 -19.43)"/><path id="path10151" class="cls-5" d="M731.51,651c7.33,12.69,13.32,23.15,13.31,23.25s-23.3,23.29-23.53,23.32-11.24-5.61-24-12.56L674,672.35l22.09-22.22,22.09-22.22Z" transform="translate(-18.64 -19.43)"/><path id="path10153" class="cls-5" d="M473.06,462.77c-7.33-12.69-13.32-23.15-13.31-23.25s23.3-23.29,23.53-23.32,11.24,5.61,24,12.56l23.26,12.63-22.09,22.22-22.09,22.22Z" transform="translate(-18.64 -19.43)"/><path id="path10155" class="cls-5" d="M761.25,573.76c12.69,7.32,23.11,13.39,23.15,13.47s-8.53,31.82-8.72,32-12.54.76-27.1,1.14l-26.46.69,8-30.29,8-30.29Z" transform="translate(-18.64 -19.43)"/><path id="path10157" class="cls-5" d="M443.33,540c-12.69-7.32-23.11-13.39-23.15-13.47s8.53-31.82,8.72-32,12.54-.76,27.1-1.14l26.46-.7-8,30.29-8,30.29Z" transform="translate(-18.64 -19.43)"/><path id="path10159" class="cls-5" d="M748.36,492c14.65,0,26.71,0,26.79.09s8.52,31.83,8.43,32S773.1,531,760.69,538.66l-22.57,13.83-8.2-30.24L721.72,492h26.64Z" transform="translate(-18.64 -19.43)"/><path id="path10161" class="cls-5" d="M456.14,621.71c-14.65,0-26.71,0-26.79-.09s-8.52-31.83-8.43-32,10.48-6.93,22.89-14.54l22.57-13.83,8.2,30.24,8.2,30.24H456.14Z" transform="translate(-18.64 -19.43)"/><path id="path10163" class="cls-5" d="M696.38,427.59c12.69-7.33,23.15-13.32,23.25-13.31s23.29,23.3,23.32,23.53-5.61,11.24-12.56,24L717.76,485.1,695.53,463l-22.22-22.09Z" transform="translate(-18.64 -19.43)"/><path id="path10165" class="cls-5" d="M508.17,686c-12.69,7.33-23.15,13.32-23.25,13.31s-23.29-23.3-23.32-23.53,5.61-11.24,12.56-24l12.63-23.26L509,650.62l22.22,22.09Z" transform="translate(-18.64 -19.43)"/><path id="path10167" class="cls-5" d="M619.16,397.85c7.32-12.69,13.39-23.11,13.47-23.15s31.82,8.53,32,8.72,0.76,12.54,1.14,27.1l0.7,26.46-30.29-8-30.29-8Z" transform="translate(-18.64 -19.43)"/><path id="path10169" class="cls-5" d="M585.39,715.78c-7.32,12.69-13.39,23.11-13.47,23.15s-31.82-8.53-32-8.72-0.76-12.54-1.14-27.1l-0.69-26.46,30.29,8,30.29,8Z" transform="translate(-18.64 -19.43)"/><path id="path10171" class="cls-5" d="M537.39,410.74c0-14.65,0-26.71.09-26.79s31.83-8.52,32-8.43,6.93,10.48,14.54,22.89L597.89,421l-30.24,8.2-30.24,8.2V410.74Z" transform="translate(-18.64 -19.43)"/><path id="path10173" class="cls-5" d="M667.11,703c0,14.65,0,26.71-.09,26.79s-31.83,8.52-32,8.43-6.93-10.48-14.54-22.89l-13.83-22.57,30.24-8.2,30.24-8.2V703Z" transform="translate(-18.64 -19.43)"/></g><g class="cls-6"><g class="cls-6"><path class="cls-7" d="M273.8,47.54C148.91,47.54,47.31,149.14,47.31,274s101.6,226.5,226.49,226.5S500.29,398.92,500.29,274,398.68,47.54,273.8,47.54M70.16,274A202.82,202.82,0,0,1,87.8,191.16L184.93,457.3A203.65,203.65,0,0,1,70.16,274M273.8,477.68a203.57,203.57,0,0,1-57.53-8.3l61.11-177.54L340,463.33a19.12,19.12,0,0,0,1.46,2.81,203.21,203.21,0,0,1-67.62,11.55m28.06-299.12c12.26-.64,23.31-1.93,23.31-1.93,11-1.3,9.68-17.42-1.3-16.78,0,0-33,2.59-54.28,2.59-20,0-53.63-2.59-53.63-2.59-11-.64-12.27,16.13-1.29,16.78,0,0,10.39,1.29,21.36,1.93l31.72,86.93L223.18,399.13,149,178.55c12.27-.64,23.3-1.93,23.3-1.93,11-1.3,9.67-17.42-1.3-16.78,0,0-33,2.59-54.27,2.59-3.82,0-8.32-.09-13.11-0.25a203.58,203.58,0,0,1,307.65-38.32c-0.88-.05-1.73-0.16-2.64-0.16-20,0-34.2,17.42-34.2,36.14,0,16.78,9.68,31,20,47.76,7.74,13.56,16.79,31,16.79,56.16,0,17.43-6.7,37.65-15.5,65.83l-20.32,67.86Zm150.63-2.22A203.67,203.67,0,0,1,376.17,450l62.2-179.83c11.62-29.05,15.49-52.28,15.49-72.94a156.34,156.34,0,0,0-1.37-20.94" transform="translate(-18.64 -19.43)"/></g></g><g class="cls-8"><g class="cls-8"><path class="cls-9" d="M802.4,250.11A31.94,31.94,0,1,0,834.33,282a31.94,31.94,0,0,0-31.93-31.94" transform="translate(-18.64 -19.43)"/><path class="cls-9" d="M842.11,244a55,55,0,0,1-8.3,83.16c26.34-8.13,48.13-27.92,57.89-51.9,13.49-33.17.93-58.14-20.16-80.77A42,42,0,0,1,842.11,244" transform="translate(-18.64 -19.43)"/><path class="cls-9" d="M806,203.59a24.43,24.43,0,1,0,24.43-24.43A24.43,24.43,0,0,0,806,203.59" transform="translate(-18.64 -19.43)"/><path class="cls-9" d="M760.33,317.46a55,55,0,0,1,35.51-90,42,42,0,0,1,40.29-65.54C822.37,150,808.64,138,797.8,124.82c5.54,57.68-52.53,36.72-74,89.87-14.4,35.66-1.42,79.74,36.53,102.78" transform="translate(-18.64 -19.43)"/></g></g></svg>