<svg id="JS" xmlns="http://www.w3.org/2000/svg" xmlns:xlink="http://www.w3.org/1999/xlink" viewBox="0 0 209.74 310.01"><defs><style>.cls-1,.cls-3{fill:url(#linear-gradient);}.cls-1{clip-rule:evenodd;}.cls-2{fill:#939393;}.cls-3{fill-rule:evenodd;}.cls-4{clip-path:url(#clip-path);}.cls-14,.cls-5{fill:none;}.cls-6{fill:url(#linear-gradient-3);}.cls-7{fill:url(#linear-gradient-4);}.cls-8{fill:url(#linear-gradient-5);}.cls-9{fill:url(#linear-gradient-6);}.cls-10{fill:url(#linear-gradient-7);}.cls-11{fill:url(#linear-gradient-8);}.cls-12{fill:url(#linear-gradient-9);}.cls-13{fill:#fff;}.cls-14{stroke:#fff;stroke-miterlimit:10;stroke-width:5.67px;}.cls-15{fill:url(#linear-gradient-10);}.cls-16{fill:url(#linear-gradient-11);}</style><linearGradient id="linear-gradient" x1="99.06" y1="36.62" x2="61" y2="114.27" gradientUnits="userSpaceOnUse"><stop offset="0" stop-color="#41873f"/><stop offset="0.33" stop-color="#418b3d"/><stop offset="0.64" stop-color="#409637"/><stop offset="0.93" stop-color="#3fa92d"/><stop offset="1" stop-color="#3fae2a"/></linearGradient><clipPath id="clip-path" transform="translate(-34.36 -9.57)"><path id="_Clipping_Path_" data-name="&lt;Clipping Path&gt;" class="cls-1" d="M84.48,18.51a5.09,5.09,0,0,0-5.09,0L37.26,42.83a5.09,5.09,0,0,0-2.55,4.41V95.9a5.09,5.09,0,0,0,2.54,4.41l42.13,24.33a5.09,5.09,0,0,0,5.09,0l42.12-24.33a5.09,5.09,0,0,0,2.54-4.41V47.23a5.09,5.09,0,0,0-2.55-4.41Z"/></clipPath><linearGradient id="linear-gradient-3" x1="75.52" y1="77.26" x2="182.32" y2="-1.66" gradientUnits="userSpaceOnUse"><stop offset="0.14" stop-color="#41873f"/><stop offset="0.4" stop-color="#54a044"/><stop offset="0.71" stop-color="#66b748"/><stop offset="0.91" stop-color="#6cc04a"/></linearGradient><linearGradient id="linear-gradient-4" x1="-1.14" y1="0.17" x2="96.28" y2="0.17" gradientUnits="userSpaceOnUse"><stop offset="0.09" stop-color="#6cc04a"/><stop offset="0.29" stop-color="#66b748"/><stop offset="0.6" stop-color="#54a044"/><stop offset="0.86" stop-color="#41873f"/></linearGradient><linearGradient id="linear-gradient-5" x1="33.22" y1="71.56" x2="130.64" y2="71.56" xlink:href="#linear-gradient-4"/><linearGradient id="linear-gradient-6" x1="-1.14" y1="89.79" x2="96.28" y2="89.79" xlink:href="#linear-gradient-4"/><linearGradient id="linear-gradient-7" x1="33.22" y1="111.94" x2="130.64" y2="111.94" xlink:href="#linear-gradient-4"/><linearGradient id="linear-gradient-8" x1="144.83" y1="34.32" x2="84.75" y2="156.88" xlink:href="#linear-gradient"/><linearGradient id="linear-gradient-9" x1="147.62" y1="42.77" x2="241.21" y2="96.8" gradientUnits="userSpaceOnUse"><stop offset="0" stop-color="#91c9e5"/><stop offset="0.28" stop-color="#8abfdd"/><stop offset="0.75" stop-color="#76a4c8"/><stop offset="1" stop-color="#6993ba"/></linearGradient><linearGradient id="linear-gradient-10" x1="148.13" y1="265.55" x2="244.1" y2="265.55" gradientUnits="userSpaceOnUse"><stop offset="0" stop-color="#c4473a"/><stop offset="0.5" stop-color="#c1493e"/><stop offset="0.5" stop-color="#b5453a"/><stop offset="0.5" stop-color="#a23e35"/><stop offset="1" stop-color="#9e3d34"/></linearGradient><linearGradient id="linear-gradient-11" x1="162.49" y1="258.26" x2="228.45" y2="258.26" gradientUnits="userSpaceOnUse"><stop offset="0" stop-color="#e8e8e8"/><stop offset="0.18" stop-color="#dedede"/><stop offset="0.49" stop-color="#c3c3c3"/><stop offset="0.51" stop-color="#c1c1c1"/><stop offset="0.51" stop-color="#b5b5b5"/><stop offset="0.51" stop-color="#a2a2a2"/><stop offset="1" stop-color="#9e9e9e"/></linearGradient></defs><title>illustration-material-design-js</title><path class="cls-2" d="M139.31,222.85a8.37,8.37,0,0,1-4.19-1.12l-13.34-7.89c-2-1.11-1-1.51-.36-1.74a26.6,26.6,0,0,0,6-2.74,1,1,0,0,1,1,.08l10.25,6.08a1.32,1.32,0,0,0,1.24,0l39.95-23.06a1.26,1.26,0,0,0,.61-1.08v-46.1a1.29,1.29,0,0,0-.62-1.1l-39.93-23a1.25,1.25,0,0,0-1.23,0l-39.92,23a1.28,1.28,0,0,0-.63,1.09v46.1a1.22,1.22,0,0,0,.63,1.07l10.94,6.32c5.94,3,9.57-.53,9.57-4V149.21a1.15,1.15,0,0,1,1.16-1.15h5.07a1.15,1.15,0,0,1,1.16,1.15v45.52c0,7.92-4.32,12.47-11.83,12.47-2.31,0-4.13,0-9.2-2.5l-10.48-6A8.44,8.44,0,0,1,91,191.37v-46.1A8.42,8.42,0,0,1,95.17,138l39.95-23.08a8.75,8.75,0,0,1,8.4,0L183.46,138a8.43,8.43,0,0,1,4.2,7.28v46.1a8.46,8.46,0,0,1-4.2,7.29l-39.95,23.06A8.38,8.38,0,0,1,139.31,222.85Z" transform="translate(-34.36 -9.57)"/><path class="cls-2" d="M151.65,191.09c-17.48,0-21.14-8-21.14-14.76a1.15,1.15,0,0,1,1.15-1.15h5.16a1.16,1.16,0,0,1,1.15,1c0.78,5.26,3.1,7.91,13.68,7.91,8.42,0,12-1.9,12-6.37,0-2.57-1-4.48-14.1-5.77-10.93-1.08-17.69-3.5-17.69-12.24,0-8.06,6.79-12.87,18.19-12.87,12.8,0,19.13,4.44,19.93,14a1.16,1.16,0,0,1-1.15,1.26h-5.18a1.15,1.15,0,0,1-1.12-.9c-1.24-5.53-4.27-7.3-12.48-7.3-9.19,0-10.26,3.2-10.26,5.6,0,2.91,1.26,3.75,13.67,5.39s18.11,3.92,18.11,12.55S164.31,191.09,151.65,191.09Z" transform="translate(-34.36 -9.57)"/><path id="_Clipping_Path_2" data-name="&lt;Clipping Path&gt;" class="cls-3" d="M84.48,18.51a5.09,5.09,0,0,0-5.09,0L37.26,42.83a5.09,5.09,0,0,0-2.55,4.41V95.9a5.09,5.09,0,0,0,2.54,4.41l42.13,24.33a5.09,5.09,0,0,0,5.09,0l42.12-24.33a5.09,5.09,0,0,0,2.54-4.41V47.23a5.09,5.09,0,0,0-2.55-4.41Z" transform="translate(-34.36 -9.57)"/><g class="cls-4"><path class="cls-5" d="M79.3,18.51L37.08,42.83a5.26,5.26,0,0,0-2.72,4.41V95.9a4.92,4.92,0,0,0,1.31,3.24L83.11,18A5.17,5.17,0,0,0,79.3,18.51Z" transform="translate(-34.36 -9.57)"/><path class="cls-5" d="M83.35,125.13a5.07,5.07,0,0,0,1.19-.49l42.18-24.33a5.19,5.19,0,0,0,2.65-4.41V47.23a5,5,0,0,0-1.54-3.53Z" transform="translate(-34.36 -9.57)"/><path class="cls-6" d="M126.69,42.83L84.43,18.51A5.06,5.06,0,0,0,83.11,18L35.67,99.14a5.8,5.8,0,0,0,1.42,1.17l42.32,24.33a5.14,5.14,0,0,0,3.93.49L127.82,43.7A5.54,5.54,0,0,0,126.69,42.83Z" transform="translate(-34.36 -9.57)"/><path class="cls-5" d="M129.36,95.9V47.23a5.21,5.21,0,0,0-2.67-4.41L84.43,18.51a5.07,5.07,0,0,0-1.55-.57L129.2,97.07A4.68,4.68,0,0,0,129.36,95.9Z" transform="translate(-34.36 -9.57)"/><path class="cls-5" d="M37.08,42.83a5.26,5.26,0,0,0-2.72,4.41V95.9a5.28,5.28,0,0,0,2.73,4.41l42.32,24.33a5.13,5.13,0,0,0,3.26.63L37.33,42.68Z" transform="translate(-34.36 -9.57)"/><polygon class="cls-7" points="43.63 0 43.05 0.33 43.82 0.33 43.63 0"/><path class="cls-8" d="M126.71,100.31a5.33,5.33,0,0,0,2.49-3.24L82.88,17.94a5.16,5.16,0,0,0-3.58.57l-42,24.17,45.34,82.59a5.1,5.1,0,0,0,1.86-.63Z" transform="translate(-34.36 -9.57)"/><polygon class="cls-9" points="96.28 89.95 96 89.47 96 90.11 96.28 89.95"/><path class="cls-10" d="M126.71,100.31L84.53,124.64a5.1,5.1,0,0,1-1.86.63l0.84,1.53,46.85-27.12V99l-1.16-2A5.33,5.33,0,0,1,126.71,100.31Z" transform="translate(-34.36 -9.57)"/><path class="cls-11" d="M126.71,100.31L84.53,124.64a5.1,5.1,0,0,1-1.86.63l0.84,1.53,46.85-27.12V99l-1.16-2A5.33,5.33,0,0,1,126.71,100.31Z" transform="translate(-34.36 -9.57)"/></g><g id="react_hexagon" data-name="react hexagon"><path class="cls-12" d="M190,122.63L150.86,100a8.86,8.86,0,0,1-4.43-7.67V47.19a8.86,8.86,0,0,1,4.43-7.67L190,16.93a8.86,8.86,0,0,1,8.86,0L238,39.52a8.86,8.86,0,0,1,4.43,7.67V92.37A8.86,8.86,0,0,1,238,100l-39.13,22.59A8.86,8.86,0,0,1,190,122.63Z" transform="translate(-34.36 -9.57)"/></g><g id="react_symbol" data-name="react symbol"><circle class="cls-13" cx="160.17" cy="59.7" r="7.52"/><path class="cls-14" d="M194.53,54c10.1,0,19.49,1.45,26.57,3.89,8.53,2.94,13.77,7.38,13.77,11.41,0,4.2-5.56,8.93-14.71,12-6.92,2.29-16,3.49-25.62,3.49-9.83,0-19.14-1.12-26.14-3.52-8.86-3-14.19-7.82-14.19-11.93s5-8.41,13.41-11.34C174.71,55.46,184.33,54,194.53,54Z" transform="translate(-34.36 -9.57)"/><path class="cls-14" d="M181.21,61.67c5-8.75,11-16.16,16.64-21.07,6.8-5.92,13.28-8.24,16.77-6.23s5,9.27,3,18.72c-1.47,7.14-5,15.63-9.78,23.94-4.91,8.52-10.54,16-16.11,20.89-7,6.16-13.86,8.39-17.43,6.33s-4.79-8.54-3.13-17.28C172.6,79.58,176.12,70.51,181.21,61.67Z" transform="translate(-34.36 -9.57)"/><path class="cls-14" d="M181.23,77.05c-5.06-8.74-8.51-17.59-9.95-24.94-1.73-8.85-.51-15.62,3-17.63s10.51,0.34,17.72,6.74c5.45,4.84,11.05,12.13,15.86,20.43,4.93,8.51,8.62,17.13,10.06,24.39,1.82,9.18.35,16.2-3.22,18.26s-9.79-.12-16.54-5.92C192.44,93.46,186.34,85.88,181.23,77.05Z" transform="translate(-34.36 -9.57)"/></g><g id="Angular_hex" data-name="Angular hex"><path class="cls-15" d="M191.69,318.4l-39.13-22.59a8.86,8.86,0,0,1-4.43-7.67V243a8.86,8.86,0,0,1,4.43-7.67l39.13-22.59a8.86,8.86,0,0,1,8.86,0l39.13,22.59A8.86,8.86,0,0,1,244.1,243v45.18a8.86,8.86,0,0,1-4.43,7.67L200.54,318.4A8.86,8.86,0,0,1,191.69,318.4Z" transform="translate(-34.36 -9.57)"/></g><g id="Angular_A" data-name="Angular A"><path class="cls-16" d="M210.12,277.84h-29l-7.56,16.48h-11l33.57-72.11,32.39,72.11H217.24Zm-4.17-9.62-10.06-23.07-10.55,23.07h20.61Z" transform="translate(-34.36 -9.57)"/></g></svg>